<svg width="397" height="405" viewBox="0 0 397 405" fill="none" xmlns="http://www.w3.org/2000/svg">
<path d="M396.984 329.099V341.761C396.984 360.063 389.724 376.585 378.158 388.008C367.943 398.144 354.359 404.308 339.426 404.165C333.897 404.101 328.575 403.291 323.586 401.782C307.747 397.143 295.053 385.927 287.983 371.088L286.045 366.656L254.716 294.688L253.779 292.511C251.92 287.761 250.903 282.502 250.903 277.005C250.903 255.034 267.378 237.193 287.666 237.193C301.615 237.193 313.768 245.613 319.996 258.036L320.028 258.1L321.41 261.214L321.553 261.5L323.602 266.075L329.973 280.294L356.139 338.726L356.806 340.188C360.428 347.385 367.498 352.31 375.6 352.31C385.895 352.31 394.474 344.414 396.523 333.929C396.825 332.372 397 330.751 397 329.083L396.984 329.099Z" fill="#2196F3"/>
<path d="M396.984 144.889V329.099C396.984 330.767 396.825 332.387 396.507 333.944C394.458 344.43 385.879 352.326 375.584 352.326C367.466 352.326 360.412 347.385 356.79 340.204L356.123 338.742L329.957 280.31L323.586 266.091V140.806C323.586 118.819 340.061 100.962 360.38 100.962C379.429 100.962 395.093 116.642 396.968 136.755V144.889H396.984Z" fill="#19E8E2"/>
<path d="M282.375 173.994C284.202 178.697 285.219 183.892 285.219 189.325C285.219 211.027 268.967 228.677 248.901 228.677C235.143 228.677 223.18 220.368 217.016 208.12L216.984 208.056L215.348 204.275L215.237 204.005L189.135 144.063L189.103 144.031L179.888 122.822V122.791L170.499 101.295C162.603 83.1842 142.649 75.4314 125.904 83.9627C125.189 84.3122 124.49 84.7253 123.807 85.1384C118.104 88.6017 113.671 93.622 110.748 99.5002L128.383 60.0369L130.353 55.6362C133.514 49.1225 137.804 43.2126 143.062 38.2876C146.716 34.7925 150.863 31.8057 155.438 29.3909C176.282 18.4448 200.287 22.7184 216.73 38.2241C221.623 42.8313 225.834 48.4076 229.106 54.8736L231.346 59.8622L280.787 170.34L280.818 170.452L280.866 170.547L282.105 173.343L282.248 173.629L282.391 173.978L282.375 173.994Z" fill="#2196F3"/>
<path d="M179.904 122.806V122.838L170.626 144.063L144.031 205.18L143.984 205.292L142.935 207.722L142.856 207.929C136.819 220.559 124.633 229.186 110.605 229.186C90.5557 229.186 74.3192 211.599 74.3192 189.865C74.3192 184.114 75.4472 178.649 77.5284 173.74L77.5602 173.645L78.3069 171.945L78.4657 171.564L78.6881 171.119L109.604 102.058C109.97 101.184 110.351 100.326 110.764 99.5001C113.703 93.622 118.12 88.6017 123.823 85.1383C124.522 84.7252 125.205 84.3122 125.92 83.9627C142.665 75.4155 162.619 83.1683 170.515 101.295L179.904 122.79V122.806Z" fill="#2C3B4E"/>
<path d="M108.587 277.704C108.587 283.217 107.571 288.428 105.68 293.21L105.458 293.766L104.441 296.117L104.171 296.674L104.028 297.055L103.996 297.15L71.4913 371.771L71.4437 371.914L70.3634 374.377L70.3316 374.472L70.2522 374.647C64.0721 387.627 51.6008 396.491 37.1754 396.491C16.6653 396.491 -0.00012207 378.492 -0.00012207 356.234C-0.00012207 349.974 1.30261 344.08 3.65389 338.758L38.6688 260.562L38.7482 260.292C44.7218 247.027 57.2884 237.86 71.825 237.86C92.1444 237.86 108.587 255.717 108.587 277.704Z" fill="#2C3B4E"/>
<path d="M182.176 334.818C202.453 334.818 218.891 318.381 218.891 298.104C218.891 277.826 202.453 261.389 182.176 261.389C161.899 261.389 145.461 277.826 145.461 298.104C145.461 318.381 161.899 334.818 182.176 334.818Z" fill="#19E8E2"/>
<path d="M359.03 73.9698C379.456 73.9698 396.015 57.4111 396.015 36.9849C396.015 16.5587 379.456 0 359.03 0C338.604 0 322.045 16.5587 322.045 36.9849C322.045 57.4111 338.604 73.9698 359.03 73.9698Z" fill="#2196F3"/>
</svg>
